inDegrees=no
num_controls=7
num_derivatives=13
num_iterations=124
num_multipliers=7
num_parameters=0
num_slacks=7
num_states=26
objective=0.729133
objective_accelerations=0.214671
objective_balance=0.004310
objective_effort=0.010712
objective_height=0.493694
objective_ligament=0.005746
solver_duration=1653.316369
status=Solve_Succeeded
success=true
DataType=double
version=3
OpenSimVersion=4.5
endheader
time	/jointset/ground_pelvis/pelvis_tilt/value	/jointset/ground_pelvis/pelvis_tx/value	/jointset/ground_pelvis/pelvis_ty/value	/jointset/hip_l/hip_flexion_l/value	/jointset/hip_l/hip_adduction_l/value	/jointset/hip_l/hip_rotation_l/value	/jointset/back/lumbar_extension/value	/jointset/patellofemoral_l/patellar_flexion_l/value	/jointset/knee_l/knee_flexion_l/value	/jointset/knee_l/knee_adduction_l/value	/jointset/knee_l/knee_rotation_l/value	/jointset/ankle_l/ankle_angle_l/value	/jointset/subtalar_l/subtalar_angle_l/value	/jointset/ground_pelvis/pelvis_tilt/speed	/jointset/ground_pelvis/pelvis_tx/speed	/jointset/ground_pelvis/pelvis_ty/speed	/jointset/hip_l/hip_flexion_l/speed	/jointset/hip_l/hip_adduction_l/speed	/jointset/hip_l/hip_rotation_l/speed	/jointset/back/lumbar_extension/speed	/jointset/patellofemoral_l/patellar_flexion_l/speed	/jointset/knee_l/knee_flexion_l/speed	/jointset/knee_l/knee_adduction_l/speed	/jointset/knee_l/knee_rotation_l/speed	/jointset/ankle_l/ankle_angle_l/speed	/jointset/subtalar_l/subtalar_angle_l/speed	/forceset/tau_hip_flexion_l	/forceset/tau_hip_adduction_l	/forceset/tau_hip_rotation_l	/forceset/tau_knee_flexion_l	/forceset/tau_ankle_angle_l	/forceset/tau_subtalar_angle_l	/forceset/tau_lumbar_extension	lambda_cid13_p0	lambda_cid13_p1	lambda_cid13_p2	lambda_cid13_p3	lambda_cid13_p4	lambda_cid13_p5	lambda_cid14_p0	/jointset/ground_pelvis/pelvis_tilt/accel	/jointset/ground_pelvis/pelvis_tx/accel	/jointset/ground_pelvis/pelvis_ty/accel	/jointset/hip_l/hip_flexion_l/accel	/jointset/hip_l/hip_adduction_l/accel	/jointset/hip_l/hip_rotation_l/accel	/jointset/back/lumbar_extension/accel	/jointset/patellofemoral_l/patellar_flexion_l/accel	/jointset/knee_l/knee_flexion_l/accel	/jointset/knee_l/knee_adduction_l/accel	/jointset/knee_l/knee_rotation_l/accel	/jointset/ankle_l/ankle_angle_l/accel	/jointset/subtalar_l/subtalar_angle_l/accel	gamma_cid13_p0	gamma_cid13_p1	gamma_cid13_p2	gamma_cid13_p3	gamma_cid13_p4	gamma_cid13_p5	gamma_cid14_p0
1.5	0.1160018733769694	0.09590981840454375	0.9491876609095734	0.01765630511651057	-0.1706683851622914	-0.1605967554543426	-0.4049657508719498	0.08151895300263355	0.08151895300267417	0.02812525058563727	0.06605782633454046	0.01419084319689471	0.1370252349062682	0.1280681394915834	-0.0125324659394489	0.01174184549591389	-0.1860278572155961	0.00522478663784248	-0.009650088331754826	0.02139749964699459	-0.1008375339047354	-0.1008375339047365	-0.008168970414586295	0.006325647576844413	-0.04641715431677083	-0.01505998265039254	0.03571457042276917	0.06222024924175135	0.02099324009325738	-0.1179374740098391	0.1141164048716909	-0.05706031556380977	0.08248585974647381	-14.73101596331318	31.07257683511852	-9.648108729159814	4.313114918837369	-703.0596151420829	-20.49628670755246	-13.89289557407232	-0.06703367475859147	-0.08166938107898702	-0.01695207132171078	0.2684597692094128	0.00012918507963103	0.02567369061880014	0.03276831852272928	0.159161716662702	0.1591617166627026	0.02579236229890434	-0.01694357025993445	-0.03753703516478812	-0.01624890042996143	1.384030142305991e-10	1.939679431224868e-09	4.869377725255022e-10	5.29783566075258e-10	6.02801587388419e-09	1.477873446755465e-09	-9.316830798097335e-11
1.51	0.1172792227613147	0.09578045207788591	0.949304243092422	0.01580927443389528	-0.170616098690833	-0.160692035444108	-0.40475026836266	0.08051834690116222	0.08051834690123071	0.02804488134010406	0.06612022218013755	0.01372476327623724	0.1368738447030862	0.1273927617065833	-0.01333748021797456	0.01157417425925718	-0.1833701091186651	0.005232011667922816	-0.00940557077351644	0.02169692190112443	-0.09927972427862082	-0.09927972427862454	-0.007904989012037133	0.006153681720288473	-0.04679393283334993	-0.01521636145543423	0.03710376669985814	0.06171326019890577	0.0211004699614046	-0.1192862363128865	0.1160625127298104	-0.05709094915529222	0.08160336649272973	-14.11540867282751	31.06112816534882	-9.741130054119663	4.088795814811777	-703.0745911475262	-20.57524290508837	-13.8543171045242	-0.06913623682474493	-0.07941946377827676	-0.01673596089663261	0.265657873895094	0.000944512957778096	0.02389154784779659	0.02821713102301421	0.154684921897661	0.154684921896992	0.02668477620981126	-0.01729901979561263	-0.03701368385024759	-0.01507823558738829	1.235609154504639e-10	1.840686801783489e-09	4.995771031835934e-10	5.372519844994189e-10	6.046526667524047e-09	1.450193778914265e-09	-9.969078352606534e-11
1.52	0.1185495490865545	0.09564313520593647	0.949419136300697	0.0139890663410732	-0.1705637548989603	-0.1607848601063854	-0.4045318540403882	0.07953343776327766	0.0795334377633201	0.02796714865805918	0.06618090318214323	0.01325506248562773	0.1367209415388422	0.1266635276631515	-0.01412257499776445	0.01140405058118752	-0.1806633392634145	0.005236250737461741	-0.009159022838369901	0.02198386224175039	-0.09769814120003502	-0.09769814120004142	-0.007641657730462758	0.005982678806029936	-0.04714132830773751	-0.01536257486232633	0.03849296297713348	0.06120627115598846	0.02120769982737071	-0.1206349986158312	0.1180086205880431	-0.05712158274677005	0.08072087323901919	-13.49957483148213	31.04964858773334	-9.834156455400628	3.865709747763961	-703.0863219818575	-20.65150560747938	-13.81622993630902	-0.07780492644577938	-0.07768548133072245	-0.01744255960432566	0.2782641208730015	-0.0004680070288277994	0.02607976600036812	0.03027193582162218	0.1639164071569551	0.1639164071569542	0.02566233810364097	-0.01675098180032629	-0.03166042672518556	-0.01421582079965547	1.218961839584576e-10	1.752639009691348e-09	5.091759731295633e-10	5.322742722565076e-10	6.049803079145496e-09	1.438484669935409e-09	-1.025559648849998e-10
1.53	0.119812317238463	0.09549806891491465	0.9495323165004487	0.01219616000427376	-0.1705113824600503	-0.1608752101071405	-0.4043106444252011	0.07856445455628552	0.07856445455637466	0.0278920467629841	0.06623988019586539	0.01278203337040878	0.1365666277313032	0.1258812007446048	-0.01488719016674725	0.0112315911443324	-0.1779101403175093	0.005237755339633014	-0.008910950344801308	0.02225503993419356	-0.09609471588014612	-0.09609471588015198	-0.007378838121204556	0.00581264433159504	-0.04745944622188653	-0.01549840932614788	0.03989772258386255	0.06068935292746872	0.02131821529809052	-0.1220428966641803	0.1200303771963254	-0.05714190294934415	0.07982519995101914	-12.8590664041628	31.03339723383497	-9.93102267411453	3.628759473901386	-703.1014160049934	-20.73515053765275	-13.77864514008526	-0.07978192226396882	-0.0753254748602564	-0.01720616353718771	0.2750159684213586	0.000387218094278577	0.02417496017728704	0.02508755553826585	0.1591232616488084	0.1591232616486357	0.02657451135414028	-0.01714156625877866	-0.0311301685488101	-0.01300098387350074	1.342324052100881e-10	1.67622010728277e-09	5.155443535689043e-10	5.140725461798324e-10	6.036892959872387e-09	1.443744279747793e-09	-1.015352711711421e-10
1.54	0.1210669950516885	0.0953454612841686	0.949643760400275	0.010431019294342	-0.1704590094703462	-0.1609630785891184	-0.404086813659167	0.07761161913598548	0.07761161913603337	0.02781956961188206	0.06629715448798706	0.01230597453708718	0.1364110088341838	0.1250454599175854	-0.01563084294261491	0.01105679059608587	-0.17511021389281	0.005236360911967648	-0.008662719085486608	0.02250809240984464	-0.09446858387050447	-0.0944685838705098	-0.007116708951287701	0.005642134417388244	-0.04774727192757493	-0.01562359277797357	0.04130248219058908	0.06017243469898231	0.02142873076600589	-0.1234507947126369	0.1220521338046655	-0.05716222315181547	0.07892952666295386	-12.21833061524939	31.01712911566587	-10.02791254173872	3.392633452940088	-703.1134566892758	-20.81604742659003	-13.74158033760786	-0.08848770814108632	-0.07349300270663769	-0.01791078188263117	0.2876096166315013	-0.001047812996339309	0.02611151914953596	0.0266468924629329	0.1684577451075015	0.1684577451075014	0.02552425023504351	-0.01684606975458564	-0.02560198503182524	-0.01208561840013496	1.279149860827962e-10	1.602806028126642e-09	5.284488077195957e-10	5.131528172843687e-10	6.03006260447094e-09	1.44523787664171e-09	-1.062642135560926e-10
1.55	0.1223130454060088	0.09518552689585959	0.9497534445888596	0.00869410705838586	-0.1704066637799148	-0.1610484674403127	-0.4038605377026795	0.07667515522937988	0.07667515522946512	0.02774971198142549	0.06635271987904687	0.01182719337443864	0.1362541945835801	0.124155143893151	-0.01635206339094064	0.01087961993276847	-0.1722641764389035	0.005232300829720538	-0.008415559366870093	0.02274483318993201	-0.09282005239859761	-0.09282005239859305	-0.006854856174634574	0.005470385294344482	-0.04800318591876451	-0.01573714903936734	0.04271634333694282	0.05964640635864366	0.02154243981487975	-0.1249157946565736	0.1241527402533047	-0.05717185651219885	0.07802826251369807	-11.55186339086151	30.99581329134995	-10.12867968636956	3.138348009978773	-703.1314353244778	-20.90446759580292	-13.70504643916541	-0.09072365748403867	-0.07084075530287288	-0.01768308077582034	0.2843093585642423	-0.0001567499600662406	0.02394187886019349	0.02184781500540349	0.1636726294557763	0.1636726294568162	0.0265101747417658	-0.01742304172068722	-0.02471989111371403	-0.01067468859150933	1.001053291276168e-10	1.532854027935291e-09	5.488839554942337e-10	5.321449547063868e-10	6.030237194399883e-09	1.442392371694786e-09	-1.176177366635828e-10
